<mxfile host="app.diagrams.net" modified="2021-03-12T16:29:41.622Z" agent="5.0 (Windows NT 10.0; Win64; x64) AppleWebKit/537.36 (KHTML, like Gecko) Chrome/89.0.4389.82 Safari/537.36" etag="KDnbBoQapyFhJB0U_Wrx" version="14.4.8" type="github">
  <diagram name="Page-1" id="97916047-d0de-89f5-080d-49f4d83e522f">
    <mxGraphModel dx="1021" dy="1769.5" grid="1" gridSize="10" guides="1" tooltips="1" connect="1" arrows="1" fold="1" page="1" pageScale="1.5" pageWidth="1169" pageHeight="827" background="#ffffff" math="0" shadow="0">
      <root>
        <mxCell id="0" />
        <mxCell id="1" parent="0" />
        <mxCell id="2" value="MODELO DE GESTIÓN DE PROYECTOS" style="rounded=1;fillColor=#10739E;strokeColor=none;shadow=1;gradientColor=none;fontStyle=1;fontColor=#FFFFFF;fontSize=14;" parent="1" vertex="1">
          <mxGeometry x="890" y="220" width="318" height="65.5" as="geometry" />
        </mxCell>
        <mxCell id="APoWf9Y6Tdosz3FZHgf2-59" style="edgeStyle=orthogonalEdgeStyle;rounded=0;orthogonalLoop=1;jettySize=auto;html=1;exitX=0;exitY=0.5;exitDx=0;exitDy=0;" edge="1" parent="1" source="5">
          <mxGeometry relative="1" as="geometry">
            <mxPoint x="400" y="486" as="targetPoint" />
          </mxGeometry>
        </mxCell>
        <mxCell id="5" value="GESTIÓN PREDICTIVA" style="rounded=1;fillColor=#10739E;strokeColor=none;shadow=1;gradientColor=none;fontStyle=1;fontColor=#FFFFFF;fontSize=14;" parent="1" vertex="1">
          <mxGeometry x="542" y="455.5" width="200" height="60" as="geometry" />
        </mxCell>
        <mxCell id="6" value="GESTIÓN EVOLUTIVA" style="rounded=1;fillColor=#10739E;strokeColor=none;shadow=1;gradientColor=none;fontStyle=1;fontColor=#FFFFFF;fontSize=14;" parent="1" vertex="1">
          <mxGeometry x="1340" y="450" width="200" height="60" as="geometry" />
        </mxCell>
        <mxCell id="8" value="DESARROLLO" style="rounded=1;fillColor=#647687;strokeColor=#314354;shadow=1;fontStyle=1;fontSize=14;fontColor=#ffffff;" parent="1" vertex="1">
          <mxGeometry x="300" y="625.5" width="200" height="60" as="geometry" />
        </mxCell>
        <mxCell id="11" value="Completo" style="rounded=1;shadow=1;fontStyle=1;fontSize=14;" parent="1" vertex="1">
          <mxGeometry x="310" y="705.5" width="180" height="50" as="geometry" />
        </mxCell>
        <mxCell id="12" value="Office of Intelligence &#xa;Support" style="rounded=1;fillColor=#10739E;strokeColor=none;shadow=1;gradientColor=none;fontStyle=1;fontColor=#FFFFFF;fontSize=14;" parent="1" vertex="1">
          <mxGeometry x="282" y="975.5" width="200" height="60" as="geometry" />
        </mxCell>
        <mxCell id="14" value="TRABAJO" style="rounded=1;fillColor=#647687;strokeColor=#314354;shadow=1;fontStyle=1;fontColor=#ffffff;fontSize=14;" parent="1" vertex="1">
          <mxGeometry x="552" y="624.5" width="200" height="60" as="geometry" />
        </mxCell>
        <mxCell id="15" value="Office of Technology &#xa;Research" style="rounded=1;fillColor=#10739E;strokeColor=none;shadow=1;gradientColor=none;fontStyle=1;fontColor=#FFFFFF;fontSize=14;" parent="1" vertex="1">
          <mxGeometry x="10" y="810" width="200" height="60" as="geometry" />
        </mxCell>
        <mxCell id="16" value="Office of&#xa;Data Services" style="rounded=1;fillColor=#10739E;strokeColor=none;shadow=1;gradientColor=none;fontStyle=1;fontColor=#FFFFFF;fontSize=14;" parent="1" vertex="1">
          <mxGeometry x="552" y="885.5" width="200" height="60" as="geometry" />
        </mxCell>
        <mxCell id="19" value="Office of Financial &#xa;Management" style="rounded=1;fillColor=#10739E;strokeColor=none;shadow=1;gradientColor=none;fontStyle=1;fontColor=#FFFFFF;fontSize=14;" parent="1" vertex="1">
          <mxGeometry x="1550" y="30" width="200" height="60" as="geometry" />
        </mxCell>
        <mxCell id="20" value="Office of Human Resources" style="rounded=1;fillColor=#10739E;strokeColor=none;shadow=1;gradientColor=none;fontStyle=1;fontColor=#FFFFFF;fontSize=14;" parent="1" vertex="1">
          <mxGeometry x="1550" y="120" width="200" height="60" as="geometry" />
        </mxCell>
        <mxCell id="21" value="Office of Management " style="rounded=1;fillColor=#10739E;strokeColor=none;shadow=1;gradientColor=none;fontStyle=1;fontColor=#FFFFFF;fontSize=14;" parent="1" vertex="1">
          <mxGeometry x="1550" y="210" width="200" height="60" as="geometry" />
        </mxCell>
        <mxCell id="22" value="Office of Training Services" style="rounded=1;fillColor=#10739E;strokeColor=none;shadow=1;gradientColor=none;fontStyle=1;fontColor=#FFFFFF;fontSize=14;" parent="1" vertex="1">
          <mxGeometry x="1550" y="300" width="200" height="60" as="geometry" />
        </mxCell>
        <mxCell id="30" value="" style="edgeStyle=elbowEdgeStyle;elbow=vertical;strokeWidth=4;endArrow=block;endFill=1;fontStyle=1;strokeColor=#23445D;exitX=0.459;exitY=1.069;exitDx=0;exitDy=0;exitPerimeter=0;" parent="1" source="2" target="5" edge="1">
          <mxGeometry x="22" y="165.5" width="100" height="100" as="geometry">
            <mxPoint x="772" y="405.5" as="sourcePoint" />
            <mxPoint x="122" y="165.5" as="targetPoint" />
          </mxGeometry>
        </mxCell>
        <mxCell id="34" value="" style="edgeStyle=elbowEdgeStyle;elbow=vertical;strokeWidth=4;endArrow=block;endFill=1;fontStyle=1;strokeColor=#23445D;" parent="1" target="8" edge="1">
          <mxGeometry x="22" y="165.5" width="100" height="100" as="geometry">
            <mxPoint x="642" y="520" as="sourcePoint" />
            <mxPoint x="122" y="165.5" as="targetPoint" />
            <Array as="points">
              <mxPoint x="400" y="556" />
              <mxPoint x="290" y="556" />
              <mxPoint x="552" y="555.5" />
            </Array>
          </mxGeometry>
        </mxCell>
        <mxCell id="42" value="" style="edgeStyle=elbowEdgeStyle;elbow=vertical;strokeWidth=4;endArrow=block;endFill=1;fontStyle=1;strokeColor=#23445D;exitX=0.55;exitY=1.075;exitDx=0;exitDy=0;exitPerimeter=0;" parent="1" edge="1">
          <mxGeometry x="52" y="165.5" width="100" height="100" as="geometry">
            <mxPoint x="642" y="520" as="sourcePoint" />
            <mxPoint x="642" y="610" as="targetPoint" />
          </mxGeometry>
        </mxCell>
        <mxCell id="43" value="" style="edgeStyle=elbowEdgeStyle;elbow=vertical;strokeWidth=4;endArrow=block;endFill=1;fontStyle=1;strokeColor=#23445D;" parent="1" target="15" edge="1">
          <mxGeometry x="62" y="175.5" width="100" height="100" as="geometry">
            <mxPoint x="70" y="860" as="sourcePoint" />
            <mxPoint x="162" y="175.5" as="targetPoint" />
            <Array as="points">
              <mxPoint x="170" y="880" />
              <mxPoint x="660" y="850" />
            </Array>
          </mxGeometry>
        </mxCell>
        <mxCell id="44" value="" style="edgeStyle=elbowEdgeStyle;elbow=vertical;strokeWidth=4;endArrow=block;endFill=1;fontStyle=1;strokeColor=#23445D;" parent="1" source="15" target="16" edge="1">
          <mxGeometry x="62" y="185.5" width="100" height="100" as="geometry">
            <mxPoint x="62" y="285.5" as="sourcePoint" />
            <mxPoint x="162" y="185.5" as="targetPoint" />
            <Array as="points">
              <mxPoint x="1100" y="870" />
              <mxPoint x="1160" y="840" />
              <mxPoint x="1390" y="930" />
              <mxPoint x="940" y="1160" />
            </Array>
          </mxGeometry>
        </mxCell>
        <mxCell id="46" value="" style="edgeStyle=elbowEdgeStyle;elbow=vertical;strokeWidth=4;endArrow=block;endFill=1;fontStyle=1;strokeColor=#23445D;" parent="1" target="19" edge="1">
          <mxGeometry x="780" y="-510" width="100" height="100" as="geometry">
            <mxPoint x="1649.9999999999995" as="sourcePoint" />
            <mxPoint x="880" y="-510" as="targetPoint" />
          </mxGeometry>
        </mxCell>
        <mxCell id="47" value="" style="edgeStyle=elbowEdgeStyle;elbow=vertical;strokeWidth=4;endArrow=block;endFill=1;fontStyle=1;strokeColor=#23445D;" parent="1" source="19" target="20" edge="1">
          <mxGeometry x="780" y="-500" width="100" height="100" as="geometry">
            <mxPoint x="780" y="-400" as="sourcePoint" />
            <mxPoint x="880" y="-500" as="targetPoint" />
          </mxGeometry>
        </mxCell>
        <mxCell id="48" value="" style="edgeStyle=elbowEdgeStyle;elbow=vertical;strokeWidth=4;endArrow=block;endFill=1;fontStyle=1;strokeColor=#23445D;" parent="1" source="20" target="21" edge="1">
          <mxGeometry x="780" y="-490" width="100" height="100" as="geometry">
            <mxPoint x="780" y="-390" as="sourcePoint" />
            <mxPoint x="880" y="-490" as="targetPoint" />
          </mxGeometry>
        </mxCell>
        <mxCell id="49" value="" style="edgeStyle=elbowEdgeStyle;elbow=vertical;strokeWidth=4;endArrow=block;endFill=1;fontStyle=1;strokeColor=#23445D;" parent="1" source="21" target="22" edge="1">
          <mxGeometry x="780" y="-480" width="100" height="100" as="geometry">
            <mxPoint x="780" y="-380" as="sourcePoint" />
            <mxPoint x="880" y="-480" as="targetPoint" />
          </mxGeometry>
        </mxCell>
        <mxCell id="APoWf9Y6Tdosz3FZHgf2-61" value="Ingeniería de Procesos" style="rounded=1;fillColor=#dae8fc;strokeColor=#6c8ebf;shadow=1;fontStyle=1;fontSize=14;" vertex="1" parent="1">
          <mxGeometry x="190" y="455.5" width="200" height="60" as="geometry" />
        </mxCell>
        <mxCell id="APoWf9Y6Tdosz3FZHgf2-65" value="Detallado" style="rounded=1;shadow=1;fontStyle=1;fontSize=14;" vertex="1" parent="1">
          <mxGeometry x="310" y="770" width="180" height="50" as="geometry" />
        </mxCell>
        <mxCell id="APoWf9Y6Tdosz3FZHgf2-67" value="DESARROLLO" style="rounded=1;fillColor=#647687;strokeColor=#314354;shadow=1;fontStyle=1;fontSize=14;fontColor=#ffffff;" vertex="1" parent="1">
          <mxGeometry x="1110" y="605" width="200" height="60" as="geometry" />
        </mxCell>
        <mxCell id="APoWf9Y6Tdosz3FZHgf2-68" value="Completo" style="rounded=1;shadow=1;fontStyle=1;fontSize=14;" vertex="1" parent="1">
          <mxGeometry x="1120" y="674.5" width="180" height="50" as="geometry" />
        </mxCell>
        <mxCell id="APoWf9Y6Tdosz3FZHgf2-69" value="TRABAJO" style="rounded=1;fillColor=#647687;strokeColor=#314354;shadow=1;fontStyle=1;fontColor=#ffffff;fontSize=14;" vertex="1" parent="1">
          <mxGeometry x="1360" y="605" width="200" height="60" as="geometry" />
        </mxCell>
        <mxCell id="APoWf9Y6Tdosz3FZHgf2-70" value="" style="edgeStyle=elbowEdgeStyle;elbow=vertical;strokeWidth=4;endArrow=block;endFill=1;fontStyle=1;strokeColor=#23445D;" edge="1" parent="1">
          <mxGeometry x="812" y="145.5" width="100" height="100" as="geometry">
            <mxPoint x="1432" y="520" as="sourcePoint" />
            <mxPoint x="1190" y="605.5" as="targetPoint" />
            <Array as="points">
              <mxPoint x="1190" y="536" />
              <mxPoint x="1080" y="536" />
              <mxPoint x="1342" y="535.5" />
            </Array>
          </mxGeometry>
        </mxCell>
        <mxCell id="APoWf9Y6Tdosz3FZHgf2-71" value="" style="edgeStyle=elbowEdgeStyle;elbow=vertical;strokeWidth=4;endArrow=block;endFill=1;fontStyle=1;strokeColor=#23445D;" edge="1" parent="1">
          <mxGeometry x="844.29" y="145.5" width="100" height="100" as="geometry">
            <mxPoint x="1434" y="520" as="sourcePoint" />
            <mxPoint x="1434.2899999999995" y="600" as="targetPoint" />
          </mxGeometry>
        </mxCell>
        <mxCell id="APoWf9Y6Tdosz3FZHgf2-72" value="Detallado" style="rounded=1;shadow=1;fontStyle=1;fontSize=14;" vertex="1" parent="1">
          <mxGeometry x="1120" y="739" width="180" height="50" as="geometry" />
        </mxCell>
        <mxCell id="APoWf9Y6Tdosz3FZHgf2-74" value="" style="edgeStyle=elbowEdgeStyle;elbow=vertical;strokeWidth=4;endArrow=block;endFill=1;fontStyle=1;strokeColor=#23445D;exitX=0.55;exitY=1.075;exitDx=0;exitDy=0;exitPerimeter=0;" edge="1" parent="1">
          <mxGeometry x="52" y="160" width="100" height="100" as="geometry">
            <mxPoint x="642" y="514.5" as="sourcePoint" />
            <mxPoint x="872" y="610" as="targetPoint" />
            <Array as="points">
              <mxPoint x="760" y="560" />
            </Array>
          </mxGeometry>
        </mxCell>
        <mxCell id="APoWf9Y6Tdosz3FZHgf2-75" value="CONOCIMIENTO" style="rounded=1;fillColor=#647687;strokeColor=#314354;shadow=1;fontStyle=1;fontColor=#ffffff;fontSize=14;" vertex="1" parent="1">
          <mxGeometry x="810" y="622.5" width="200" height="60" as="geometry" />
        </mxCell>
        <mxCell id="APoWf9Y6Tdosz3FZHgf2-77" value="" style="edgeStyle=elbowEdgeStyle;elbow=vertical;strokeWidth=4;endArrow=block;endFill=1;fontStyle=1;strokeColor=#23445D;exitX=0.55;exitY=1.075;exitDx=0;exitDy=0;exitPerimeter=0;" edge="1" parent="1">
          <mxGeometry x="843" y="162" width="100" height="100" as="geometry">
            <mxPoint x="1433" y="516.5" as="sourcePoint" />
            <mxPoint x="1663" y="612" as="targetPoint" />
            <Array as="points">
              <mxPoint x="1553" y="531" />
            </Array>
          </mxGeometry>
        </mxCell>
      </root>
    </mxGraphModel>
  </diagram>
</mxfile>
